# xmcd CD database file
#
# Track frame offsets:
#	151
#	15691
#	28223
#	44194
#	60423
#	75460
#	103283
#	118363
#	132013
#	155085
#	173033
#	186251
#
# Disc length: 2677 seconds
#
# Revision: 1
# Processed by: cddbd v1.5.2PL0 Copyright (c) Steve Scherf et al.
# Submitted via: CDex 1.70beta2
#
DISCID=a80a730c
DTITLE=Bob Pearce - Hey! Hey! The Blues Is Alright!
DYEAR=1990
DGENRE=Blues
TTITLE0='65 Chevy
TTITLE1=We're Gonna Ball Tonight
TTITLE2=What Is This Here?
TTITLE3=Reconsider Baby
TTITLE4=Poison Ivy
TTITLE5=Hoodoo Man
TTITLE6=Stranger Blues
TTITLE7=I Ain't No Eddie Kirkland
TTITLE8=This Ain't t The Way (Love's Supposed To Be)
TTITLE9=The Blues Is Alright
TTITLE10=Some Things Never Change
TTITLE11=Key To The Highway
EXTD=YEAR: 1990
EXTT0=
EXTT1=
EXTT2=
EXTT3=
EXTT4=
EXTT5=
EXTT6=
EXTT7=
EXTT8=
EXTT9=
EXTT10=
EXTT11=
PLAYORDER=
